<?xml version="1.0" encoding="UTF-8" standalone="no"?>
<!-- Created with Inkscape (http://www.inkscape.org/) -->

<svg
   xmlns:dc="http://purl.org/dc/elements/1.1/"
   xmlns:cc="http://creativecommons.org/ns#"
   xmlns:rdf="http://www.w3.org/1999/02/22-rdf-syntax-ns#"
   xmlns:svg="http://www.w3.org/2000/svg"
   xmlns="http://www.w3.org/2000/svg"
   version="1.1"
   width="1000"
   height="1000.009"
   id="svg3711">
  <defs
     id="defs3713">
    <clipPath
       id="clipPath566">
      <path
         d="m 140.346,20.606 33.207,0 0,33.219 -33.207,0 0,-33.219 z"
         id="path568" />
    </clipPath>
  </defs>
  <metadata
     id="metadata3716">
    <rdf:RDF>
      <cc:Work
         rdf:about="">
        <dc:format>image/svg+xml</dc:format>
        <dc:type
           rdf:resource="http://purl.org/dc/dcmitype/StillImage" />
        <dc:title></dc:title>
      </cc:Work>
    </rdf:RDF>
  </metadata>
  <g
     transform="translate(-354.25183,446.89843)"
     id="layer1">
    <g
       transform="matrix(30.123134,0,0,-30.123134,-3873.6223,1174.1615)"
       id="g562">
      <g
         clip-path="url(#clipPath566)"
         id="g564">
        <g
           transform="translate(156.2481,53.7864)"
           id="g570">
          <path
             d="m 0,0 c -0.291,0.018 -0.58,0.027 -0.868,0.028 -4.117,0.011 -7.847,-1.739 -11.096,-5.212 -2.946,-3.149 -3.938,-5.683 -3.931,-8.743 0.004,-1.64 0.295,-3.431 0.726,-5.548 0.81,-3.976 3.17,-7.814 6.475,-10.532 2.53,-2.078 5.35,-3.141 8.323,-3.162 1.543,-0.011 3.128,0.259 4.734,0.813 5.178,1.788 10.131,6.905 12.046,12.444 0.602,1.745 0.897,3.442 0.893,5.058 -0.008,3.978 -1.821,7.465 -5.291,9.957 C 7.81,-1.88 3.769,-0.233 0,0"
             id="path572"
             style="fill:#132746;fill-opacity:1;fill-rule:nonzero;stroke:none" />
        </g>
        <g
           transform="translate(150.7588,38.0446)"
           id="g574">
          <path
             d="M 0,0 -1.139,0 -1.14,-0.032 c -0.009,-0.221 -0.14,-2.158 -1.873,-2.158 -1.549,0 -2.336,1.388 -2.337,4.126 10e-4,2.738 0.788,4.126 2.337,4.126 1.763,0 1.869,-2.07 1.873,-2.158 l 10e-4,-0.032 1.139,0 c 0.105,0 0.207,0.043 0.28,0.118 C 0.351,4.063 0.387,4.156 0.382,4.253 0.358,4.79 0.083,7.47 -3.029,7.47 c -2.516,0 -3.845,-1.912 -3.845,-5.528 0,-3.624 1.329,-5.54 3.845,-5.54 2.995,0 3.367,2.448 3.411,3.197 0.007,0.104 -0.029,0.203 -0.101,0.28 C 0.208,-0.044 0.105,0 0,0"
             id="path576"
             style="fill:#ffffff;fill-opacity:1;fill-rule:nonzero;stroke:none" />
        </g>
        <g
           transform="translate(167.2792,40.6386)"
           id="g578">
          <path
             d="m 0,0 0,0 -0.98,0.427 c -0.943,0.415 -1.278,0.818 -1.278,1.541 0,0.943 0.69,1.577 1.717,1.577 0.607,0 1.105,-0.124 1.713,-0.743 L 1.206,2.768 1.729,3.246 c 0.303,0.282 0.215,0.535 0.089,0.698 -0.511,0.602 -1.33,0.933 -2.309,0.933 -1.887,0 -3.257,-1.231 -3.257,-2.927 0,-1.669 1.051,-2.366 2.187,-2.871 l 1,-0.446 c 1.006,-0.451 1.485,-0.836 1.485,-1.804 0,-1.319 -1.193,-1.671 -1.897,-1.671 -0.606,0 -1.281,0.13 -2.11,1.069 l -0.033,0.037 -0.545,-0.479 c -0.28,-0.247 -0.283,-0.458 -0.009,-0.81 0.75,-0.965 1.85,-1.167 2.642,-1.167 1.71,0 3.442,1.051 3.442,3.059 C 2.414,-1.395 1.449,-0.624 0,0"
             id="path580"
             style="fill:#66cde2;fill-opacity:1;fill-rule:nonzero;stroke:none" />
        </g>
        <g
           transform="translate(158.391,42.3478)"
           id="g582">
          <path
             d="M 0,0 C 0,1.709 -1.384,3.156 -3.094,3.156 -3.898,3.156 -4.63,2.85 -5.18,2.347 l 0,0.587 -1.029,0 c -0.31,0 -0.429,-0.202 -0.429,-0.435 l 0,-9.97 c 0,-0.281 0.171,-0.431 0.424,-0.431 l 1.029,0 0,7.841 c 0,1.031 0.836,1.866 1.866,1.866 1.03,0 1.865,-0.835 1.865,-1.866 l 0,-7.842 1.023,0 C -0.147,-7.903 0,-7.746 0,-7.474 L 0,0 z"
             id="path584"
             style="fill:#66cde2;fill-opacity:1;fill-rule:nonzero;stroke:none" />
        </g>
        <g
           transform="translate(163.7077,44.7588)"
           id="g586">
          <path
             d="m 0,0 c 0.054,0.067 0.087,0.15 0.087,0.242 0,0.172 -0.112,0.316 -0.266,0.368 -0.298,0.1 -0.615,0.155 -0.945,0.155 -0.803,0 -1.535,-0.307 -2.086,-0.809 l 0,0.587 -1.029,0 c -0.31,0 -0.429,-0.203 -0.429,-0.435 l 0,-9.971 c 0,-0.28 0.172,-0.43 0.424,-0.43 l 1.03,0 0,7.841 c 0,1.03 0.835,1.865 1.865,1.865 0.27,0 0.526,-0.058 0.758,-0.161 L 0.003,-0.002 0,0 z"
             id="path588"
             style="fill:#ffffff;fill-opacity:1;fill-rule:nonzero;stroke:none" />
        </g>
        <g
           transform="translate(155.3524,23.6595)"
           id="g590">
          <path
             d="m 0,0 c 0,-0.153 -0.124,-0.276 -0.277,-0.276 -0.152,0 -0.276,0.123 -0.276,0.276 l 0,18.812 c 0,0.153 0.124,0.277 0.276,0.277 C -0.124,19.089 0,18.965 0,18.812 L 0,0 z"
             id="path592"
             style="fill:#ffffff;fill-opacity:1;fill-rule:nonzero;stroke:none" />
        </g>
      </g>
    </g>
  </g>
</svg>
